<?xml version="1.0" standalone="no"?><!DOCTYPE svg PUBLIC "-//W3C//DTD SVG 1.1//EN" "http://www.w3.org/Graphics/SVG/1.1/DTD/svg11.dtd"><svg t="1501178567414" class="icon" style="" viewBox="0 0 1265 1024" version="1.1" xmlns="http://www.w3.org/2000/svg" p-id="1293" xmlns:xlink="http://www.w3.org/1999/xlink" width="247.0703125" height="200"><defs><style type="text/css"></style></defs><path d="M323.46312500000005 513.4732291666667c0 0.00375 0 0.016874999999999998 0 0.0215625 0 172.1859375 139.5853125 311.7740625 311.7740625 311.7740625 172.1859375 0 311.7740625-139.5853125 311.7740625-311.7740625 0-0.0046875 0-0.0178125 0-0.0215625 0-0.0028125 0-0.0159375 0-0.020624999999999998 0-172.1859375-139.5853125-311.7740625-311.7740625-311.7740625-172.1859375 0-311.7740625 139.5853125-311.7740625 311.7740625 0 0.0046875 0 0.0178125 0 0.0215625z" fill="#f1cdc8" p-id="1294"></path><path d="M437.83062500000005 513.4732291666667c0 109.02375 88.3790625 197.40375 197.40375 197.40375s197.40375-88.3790625 197.40375-197.40375c0 0 0 0 0 0 0-109.02375-88.3790625-197.40375-197.40375-197.40375-109.02375 0-197.40375 88.3790625-197.40375 197.40375 0 0 0 0 0 0z" fill="#d6204b" p-id="1295"></path></svg>