<?xml version="1.0" standalone="no"?><!DOCTYPE svg PUBLIC "-//W3C//DTD SVG 1.1//EN" "http://www.w3.org/Graphics/SVG/1.1/DTD/svg11.dtd"><svg t="1501178560445" class="icon" style="" viewBox="0 0 1265 1024" version="1.1" xmlns="http://www.w3.org/2000/svg" p-id="1169" xmlns:xlink="http://www.w3.org/1999/xlink" width="247.0703125" height="200"><defs><style type="text/css"></style></defs><path d="M325.08614473125436 514.8065624999999c0 0.00375 0 0.016874999999999998 0 0.0215625 0 172.1859375 139.58531249999996 311.77406249999996 311.77406249999996 311.77406249999996 172.1859375 0 311.77406249999996-139.58531249999996 311.77406249999996-311.77406249999996 0-0.004687499999999998 0-0.017812499999999995 0-0.0215625 0-0.0028125 0-0.015937499999999997 0-0.020624999999999994 0-172.1859375-139.58531249999996-311.77406249999996-311.77406249999996-311.77406249999996-172.1859375 0-311.77406249999996 139.58531249999996-311.77406249999996 311.77406249999996 0 0.004687499999999998 0 0.017812499999999995 0 0.0215625z" fill="#c8eff8" p-id="1170"></path><path d="M439.4536447312544 514.8065624999999c0 109.02374999999999 88.37906250000003 197.40374999999997 197.40375000000003 197.40374999999995s197.40374999999997-88.37906250000003 197.40374999999995-197.40375000000003c0 0 0 0 0 0 0-109.02374999999999-88.37906250000003-197.40374999999997-197.40375000000003-197.40374999999995-109.02374999999999 0-197.40374999999997 88.37906250000003-197.40374999999995 197.40375000000003 0 0 0 0 0 0z" fill="#1fb3d5" p-id="1171"></path></svg>